<svg xmlns="http://www.w3.org/2000/svg" xmlns:xlink="http://www.w3.org/1999/xlink" width="500" zoomAndPan="magnify" viewBox="0 0 375 374.999991" height="500" preserveAspectRatio="xMidYMid meet" version="1.0"><defs><g/></defs><g fill="#004aad" fill-opacity="1"><g transform="translate(88.817708, 245.214579)"><g><path d="M 2.8125 0 L 2.8125 -18.5625 L 4.984375 -18.5625 L 4.984375 -10.453125 L 5.390625 -10.453125 L 13 -18.5625 L 15.390625 -18.5625 L 15.390625 -18.25 L 7.34375 -9.578125 L 16.015625 -0.3125 L 16.015625 0 L 13.515625 0 L 5.390625 -8.546875 L 4.984375 -8.546875 L 4.984375 0 Z M 2.8125 0 "/></g></g></g><g fill="#004aad" fill-opacity="1"><g transform="translate(105.969734, 245.214579)"><g><path d="M 9.453125 -18.5625 C 10.722656 -18.5625 11.816406 -18.332031 12.734375 -17.875 C 13.648438 -17.414062 14.347656 -16.757812 14.828125 -15.90625 C 15.304688 -15.0625 15.546875 -14.0625 15.546875 -12.90625 C 15.546875 -11.757812 15.304688 -10.757812 14.828125 -9.90625 C 14.347656 -9.0625 13.648438 -8.410156 12.734375 -7.953125 C 11.816406 -7.492188 10.722656 -7.265625 9.453125 -7.265625 L 4.984375 -7.265625 L 4.984375 0 L 2.8125 0 L 2.8125 -18.5625 Z M 9.375 -9.125 C 11.957031 -9.125 13.25 -10.382812 13.25 -12.90625 C 13.25 -15.4375 11.957031 -16.703125 9.375 -16.703125 L 4.984375 -16.703125 L 4.984375 -9.125 Z M 9.375 -9.125 "/></g></g></g><g fill="#004aad" fill-opacity="1"><g transform="translate(123.667494, 245.214579)"><g/></g></g><g fill="#004aad" fill-opacity="1"><g transform="translate(130.818621, 245.214579)"><g><path d="M 8.109375 0.265625 C 6.941406 0.265625 5.894531 0.109375 4.96875 -0.203125 C 4.039062 -0.523438 3.269531 -0.941406 2.65625 -1.453125 C 2.039062 -1.972656 1.578125 -2.539062 1.265625 -3.15625 L 2.46875 -4.609375 L 2.78125 -4.609375 C 3.925781 -2.671875 5.703125 -1.703125 8.109375 -1.703125 C 9.503906 -1.703125 10.539062 -1.992188 11.21875 -2.578125 C 11.90625 -3.160156 12.25 -3.972656 12.25 -5.015625 C 12.25 -5.617188 12.132812 -6.132812 11.90625 -6.5625 C 11.6875 -6.988281 11.316406 -7.347656 10.796875 -7.640625 C 10.285156 -7.941406 9.585938 -8.207031 8.703125 -8.4375 L 6.53125 -8.96875 C 4.90625 -9.351562 3.707031 -9.96875 2.9375 -10.8125 C 2.175781 -11.664062 1.796875 -12.742188 1.796875 -14.046875 C 1.796875 -14.972656 2.03125 -15.796875 2.5 -16.515625 C 2.976562 -17.242188 3.675781 -17.8125 4.59375 -18.21875 C 5.507812 -18.625 6.601562 -18.828125 7.875 -18.828125 C 9.269531 -18.828125 10.445312 -18.628906 11.40625 -18.234375 C 12.363281 -17.835938 13.132812 -17.25 13.71875 -16.46875 L 12.640625 -15.03125 L 12.328125 -15.03125 C 11.796875 -15.6875 11.164062 -16.164062 10.4375 -16.46875 C 9.707031 -16.769531 8.851562 -16.921875 7.875 -16.921875 C 6.582031 -16.921875 5.609375 -16.671875 4.953125 -16.171875 C 4.296875 -15.671875 3.96875 -14.984375 3.96875 -14.109375 C 3.96875 -13.265625 4.207031 -12.59375 4.6875 -12.09375 C 5.175781 -11.601562 5.992188 -11.222656 7.140625 -10.953125 L 9.359375 -10.421875 C 11.160156 -9.992188 12.460938 -9.34375 13.265625 -8.46875 C 14.078125 -7.59375 14.484375 -6.472656 14.484375 -5.109375 C 14.484375 -4.066406 14.25 -3.140625 13.78125 -2.328125 C 13.3125 -1.523438 12.597656 -0.890625 11.640625 -0.421875 C 10.679688 0.0351562 9.503906 0.265625 8.109375 0.265625 Z M 8.109375 0.265625 "/></g></g></g><g fill="#004aad" fill-opacity="1"><g transform="translate(147.501062, 245.214579)"><g><path d="M 10.1875 0.265625 C 8.570312 0.265625 7.140625 -0.078125 5.890625 -0.765625 C 4.640625 -1.460938 3.65625 -2.523438 2.9375 -3.953125 C 2.21875 -5.378906 1.859375 -7.15625 1.859375 -9.28125 C 1.859375 -11.40625 2.21875 -13.179688 2.9375 -14.609375 C 3.65625 -16.035156 4.640625 -17.09375 5.890625 -17.78125 C 7.140625 -18.476562 8.570312 -18.828125 10.1875 -18.828125 C 11.789062 -18.828125 13.21875 -18.476562 14.46875 -17.78125 C 15.726562 -17.09375 16.71875 -16.035156 17.4375 -14.609375 C 18.15625 -13.179688 18.515625 -11.40625 18.515625 -9.28125 C 18.515625 -7.15625 18.15625 -5.378906 17.4375 -3.953125 C 16.71875 -2.523438 15.726562 -1.460938 14.46875 -0.765625 C 13.21875 -0.078125 11.789062 0.265625 10.1875 0.265625 Z M 10.1875 -1.75 C 12.113281 -1.75 13.59375 -2.351562 14.625 -3.5625 C 15.65625 -4.769531 16.171875 -6.675781 16.171875 -9.28125 C 16.171875 -11.882812 15.65625 -13.789062 14.625 -15 C 13.59375 -16.207031 12.113281 -16.8125 10.1875 -16.8125 C 6.1875 -16.8125 4.1875 -14.300781 4.1875 -9.28125 C 4.1875 -4.257812 6.1875 -1.75 10.1875 -1.75 Z M 10.1875 -1.75 "/></g></g></g><g fill="#004aad" fill-opacity="1"><g transform="translate(168.638218, 245.214579)"><g><path d="M 4.984375 -18.5625 L 4.984375 -1.796875 L 13.921875 -1.796875 L 13.921875 0 L 2.8125 0 L 2.8125 -18.5625 Z M 4.984375 -18.5625 "/></g></g></g><g fill="#004aad" fill-opacity="1"><g transform="translate(184.127658, 245.214579)"><g><path d="M 9.578125 0.265625 C 7.296875 0.265625 5.570312 -0.3125 4.40625 -1.46875 C 3.238281 -2.625 2.65625 -4.335938 2.65625 -6.609375 L 2.65625 -18.5625 L 4.828125 -18.5625 L 4.828125 -6.625 C 4.828125 -5 5.21875 -3.78125 6 -2.96875 C 6.78125 -2.15625 7.972656 -1.75 9.578125 -1.75 C 12.742188 -1.75 14.328125 -3.375 14.328125 -6.625 L 14.328125 -18.5625 L 16.484375 -18.5625 L 16.484375 -6.609375 C 16.484375 -4.335938 15.898438 -2.625 14.734375 -1.46875 C 13.566406 -0.3125 11.847656 0.265625 9.578125 0.265625 Z M 9.578125 0.265625 "/></g></g></g><g fill="#004aad" fill-opacity="1"><g transform="translate(204.033739, 245.214579)"><g><path d="M 14.484375 -18.5625 L 14.484375 -16.703125 L 8.671875 -16.703125 L 8.671875 0 L 6.5 0 L 6.5 -16.703125 L 0.6875 -16.703125 L 0.6875 -18.5625 Z M 14.484375 -18.5625 "/></g></g></g><g fill="#004aad" fill-opacity="1"><g transform="translate(219.967381, 245.214579)"><g><path d="M 4.984375 0 L 2.8125 0 L 2.8125 -18.5625 L 4.984375 -18.5625 Z M 4.984375 0 "/></g></g></g><g fill="#004aad" fill-opacity="1"><g transform="translate(228.552647, 245.214579)"><g><path d="M 10.1875 0.265625 C 8.570312 0.265625 7.140625 -0.078125 5.890625 -0.765625 C 4.640625 -1.460938 3.65625 -2.523438 2.9375 -3.953125 C 2.21875 -5.378906 1.859375 -7.15625 1.859375 -9.28125 C 1.859375 -11.40625 2.21875 -13.179688 2.9375 -14.609375 C 3.65625 -16.035156 4.640625 -17.09375 5.890625 -17.78125 C 7.140625 -18.476562 8.570312 -18.828125 10.1875 -18.828125 C 11.789062 -18.828125 13.21875 -18.476562 14.46875 -17.78125 C 15.726562 -17.09375 16.71875 -16.035156 17.4375 -14.609375 C 18.15625 -13.179688 18.515625 -11.40625 18.515625 -9.28125 C 18.515625 -7.15625 18.15625 -5.378906 17.4375 -3.953125 C 16.71875 -2.523438 15.726562 -1.460938 14.46875 -0.765625 C 13.21875 -0.078125 11.789062 0.265625 10.1875 0.265625 Z M 10.1875 -1.75 C 12.113281 -1.75 13.59375 -2.351562 14.625 -3.5625 C 15.65625 -4.769531 16.171875 -6.675781 16.171875 -9.28125 C 16.171875 -11.882812 15.65625 -13.789062 14.625 -15 C 13.59375 -16.207031 12.113281 -16.8125 10.1875 -16.8125 C 6.1875 -16.8125 4.1875 -14.300781 4.1875 -9.28125 C 4.1875 -4.257812 6.1875 -1.75 10.1875 -1.75 Z M 10.1875 -1.75 "/></g></g></g><g fill="#004aad" fill-opacity="1"><g transform="translate(249.689803, 245.214579)"><g><path d="M 4.9375 0 L 2.8125 0 L 2.8125 -18.5625 L 5.484375 -18.5625 L 14.53125 -4.375 L 14.859375 -4.4375 L 14.859375 -18.5625 L 16.96875 -18.5625 L 16.96875 0 L 14.6875 0 L 5.25 -15.171875 L 4.9375 -15.125 Z M 4.9375 0 "/></g></g></g><g fill="#004aad" fill-opacity="1"><g transform="translate(270.255842, 245.214579)"><g><path d="M 8.109375 0.265625 C 6.941406 0.265625 5.894531 0.109375 4.96875 -0.203125 C 4.039062 -0.523438 3.269531 -0.941406 2.65625 -1.453125 C 2.039062 -1.972656 1.578125 -2.539062 1.265625 -3.15625 L 2.46875 -4.609375 L 2.78125 -4.609375 C 3.925781 -2.671875 5.703125 -1.703125 8.109375 -1.703125 C 9.503906 -1.703125 10.539062 -1.992188 11.21875 -2.578125 C 11.90625 -3.160156 12.25 -3.972656 12.25 -5.015625 C 12.25 -5.617188 12.132812 -6.132812 11.90625 -6.5625 C 11.6875 -6.988281 11.316406 -7.347656 10.796875 -7.640625 C 10.285156 -7.941406 9.585938 -8.207031 8.703125 -8.4375 L 6.53125 -8.96875 C 4.90625 -9.351562 3.707031 -9.96875 2.9375 -10.8125 C 2.175781 -11.664062 1.796875 -12.742188 1.796875 -14.046875 C 1.796875 -14.972656 2.03125 -15.796875 2.5 -16.515625 C 2.976562 -17.242188 3.675781 -17.8125 4.59375 -18.21875 C 5.507812 -18.625 6.601562 -18.828125 7.875 -18.828125 C 9.269531 -18.828125 10.445312 -18.628906 11.40625 -18.234375 C 12.363281 -17.835938 13.132812 -17.25 13.71875 -16.46875 L 12.640625 -15.03125 L 12.328125 -15.03125 C 11.796875 -15.6875 11.164062 -16.164062 10.4375 -16.46875 C 9.707031 -16.769531 8.851562 -16.921875 7.875 -16.921875 C 6.582031 -16.921875 5.609375 -16.671875 4.953125 -16.171875 C 4.296875 -15.671875 3.96875 -14.984375 3.96875 -14.109375 C 3.96875 -13.265625 4.207031 -12.59375 4.6875 -12.09375 C 5.175781 -11.601562 5.992188 -11.222656 7.140625 -10.953125 L 9.359375 -10.421875 C 11.160156 -9.992188 12.460938 -9.34375 13.265625 -8.46875 C 14.078125 -7.59375 14.484375 -6.472656 14.484375 -5.109375 C 14.484375 -4.066406 14.25 -3.140625 13.78125 -2.328125 C 13.3125 -1.523438 12.597656 -0.890625 11.640625 -0.421875 C 10.679688 0.0351562 9.503906 0.265625 8.109375 0.265625 Z M 8.109375 0.265625 "/></g></g></g><path fill="#004aad" d="M 179.109375 163.195312 L 182.738281 163.195312 L 182.738281 166.824219 L 179.109375 166.824219 Z M 179.109375 167.90625 L 182.738281 167.90625 L 182.738281 171.535156 L 179.109375 171.535156 Z M 173.773438 167.90625 L 177.402344 167.90625 L 177.402344 171.535156 L 173.773438 171.535156 Z M 173.773438 163.195312 L 177.402344 163.195312 L 177.402344 166.824219 L 173.773438 166.824219 Z M 177.773438 144.5625 L 149.5 178.230469 C 149.675781 178.644531 149.863281 179.054688 150.054688 179.460938 L 177.773438 153.445312 L 213.484375 183.054688 C 216.964844 183.796875 220.132812 183.800781 222.839844 183.042969 L 198.257812 162.085938 L 198.257812 155.421875 L 195.34375 155.421875 L 195.34375 159.59375 Z M 177.773438 144.5625 " fill-opacity="1" fill-rule="evenodd"/><path fill="#004aad" d="M 224.265625 164.140625 L 231.871094 172.464844 C 231.710938 173.242188 231.515625 173.980469 231.28125 174.675781 L 222.539062 165.648438 Z M 216.25 155.367188 L 223.179688 162.949219 L 221.421875 164.480469 L 213.339844 156.105469 Z M 205.636719 148.117188 L 210.234375 148.789062 L 215.164062 154.183594 L 212.203125 154.933594 Z M 221.492188 166.566406 L 230.644531 176.304688 C 230.179688 177.320312 229.621094 178.230469 228.980469 179.035156 L 218.703125 169 Z M 211.917969 156.464844 L 220.378906 165.394531 L 217.53125 167.882812 L 206.929688 157.722656 Z M 195.328125 146.613281 L 203.746094 147.839844 L 210.800781 155.28125 L 205.71875 156.5625 Z M 217.65625 169.910156 L 228.066406 180.050781 C 227.117188 180.992188 226.03125 181.742188 224.820312 182.308594 C 221.5625 179.589844 214.800781 173.714844 214.046875 173.058594 Z M 205.503906 158.085938 L 216.496094 168.785156 L 212.820312 171.996094 L 199.753906 160.644531 L 199.753906 159.535156 Z M 181.242188 144.5625 L 193.441406 146.335938 L 204.3125 156.917969 L 199.753906 158.070312 L 199.753906 153.878906 L 193.777344 153.878906 L 193.777344 155.453125 Z M 181.242188 144.5625 " fill-opacity="1" fill-rule="evenodd"/><path fill="#ffbd59" d="M 179.03125 142.085938 L 176.238281 132.695312 L 174.078125 143.953125 C 173.097656 144.101562 172.128906 144.332031 171.171875 144.636719 L 164.046875 136.429688 L 166.503906 146.808594 C 165.421875 147.484375 164.382812 148.253906 163.417969 149.113281 L 154.1875 144.773438 L 160.042969 152.808594 C 159.199219 153.953125 158.449219 155.183594 157.820312 156.472656 L 148.773438 156.851562 L 156.25 160.738281 C 156.066406 161.453125 155.917969 162.179688 155.804688 162.917969 C 155.675781 163.785156 155.605469 164.632812 155.582031 165.464844 L 147.257812 168.28125 L 154.570312 169.390625 L 155.6875 168 L 177.488281 141.839844 Z M 187.355469 143.375 L 188.589844 135.078125 L 183.761719 142.824219 Z M 196.492188 144.789062 L 199.691406 141.09375 L 194.207031 144.433594 Z M 196.492188 144.789062 " fill-opacity="1" fill-rule="evenodd"/><path fill="#004aad" d="M 171.523438 207.035156 C 146.664062 198.171875 133.710938 170.804688 142.582031 145.898438 C 151.457031 121 178.804688 107.996094 203.660156 116.851562 C 228.34375 125.648438 241.289062 152.699219 232.777344 177.460938 C 238.652344 154.003906 224.503906 129.085938 202.136719 121.117188 C 179.632812 113.101562 154.949219 124.675781 147 146.976562 C 140.453125 165.34375 147.3125 185.265625 162.515625 196.195312 C 173.121094 201.953125 181.574219 202.121094 188.359375 197.96875 C 184.273438 198.238281 180.210938 198.355469 176.304688 197.34375 C 162.976562 193.890625 159.980469 178.453125 174.070312 174.390625 C 179.492188 172.828125 191.039062 176.761719 200.042969 180.242188 C 212.53125 185.074219 218.054688 188.183594 231.496094 180.78125 L 231.488281 180.789062 C 221.628906 203.851562 195.425781 215.554688 171.523438 207.035156 " fill-opacity="1" fill-rule="evenodd"/></svg>